<svg xmlns="http://www.w3.org/2000/svg" fill="none" viewBox="0 0 24 24" stroke-width="1.5" stroke="currentColor" class="w-6 h-6">
  <path stroke-linecap="round" stroke-linejoin="round" d="M9.594 3.94c.09-.542.56-.94 1.11-.94h2.593c.55 0 1.02.398 1.11.94l.213 1.281c.063.374.313.686.645.875C17.756 6.645 19.16 8.163 19.98 10.02c.28.692.12 1.442-.362 2.04l-.658.84c-.473.606-.827 1.291-.925 2.04l-.245 1.841c-.08.6-.525 1.106-1.127 1.221C15.548 17.788 14.12 18.25 12 18.25s-3.548-.462-4.933-1.157c-.602-.115-1.047-.621-1.127-1.22l-.245-1.841c-.098-.749-.452-1.435-.925-2.04l-.658-.84c-.482-.598-.642-1.348-.362-2.041.82-1.857 2.223-3.374 4.026-4.502.333-.189.583-.501.645-.876l.213-1.281z" />
</svg>